<svg width="26" height="26" viewBox="0 -4 26 26" fill="none" xmlns="http://www.w3.org/2000/svg">
  <path d="M8.15662 20.9444C17.9803 20.9444 23.3387 12.8877 23.3387 5.89892C23.3387 5.67176 23.3387 5.44461 23.3387 5.21745C24.3825 4.46842 25.2836 3.54142 26 2.47975C25.026 2.90544 23.9937 3.18579 22.9368 3.31168C24.0507 2.65012 24.8843 1.61016 25.2826 0.385182C24.2358 1.00199 23.0899 1.43606 21.8949 1.66847C21.1627 0.895826 20.2131 0.358996 19.1694 0.127593C18.1256 -0.10381 17.0358 -0.0191105 16.0411 0.370705C15.0465 0.760521 14.193 1.43747 13.5913 2.31379C12.9896 3.1901 12.6674 4.22534 12.6666 5.2853C12.6649 5.69139 12.7108 6.09631 12.8035 6.49189C10.6821 6.3865 8.60675 5.8401 6.71226 4.88816C4.81777 3.93621 3.14648 2.60002 1.80696 0.966352C1.12386 2.1304 0.91446 3.50882 1.22145 4.82059C1.52845 6.13236 2.32872 7.27871 3.45912 8.02594C2.61167 8.00026 1.78278 7.77366 1.0419 7.36512C1.04035 7.38771 1.04035 7.41038 1.0419 7.43297C1.04225 8.65379 1.46872 9.83691 2.24895 10.7817C3.02918 11.7264 4.11516 12.3746 5.32267 12.6163C4.53732 12.8276 3.71372 12.8589 2.91437 12.7078C3.25726 13.757 3.92131 14.6744 4.81432 15.3326C5.70733 15.9908 6.78497 16.3571 7.89763 16.3806C6.00714 17.8496 3.67345 18.6465 1.27113 18.6434C0.846311 18.6441 0.421826 18.6195 0 18.5696C2.43948 20.1223 5.2782 20.9467 8.17747 20.9444" fill="black"/>
</svg>
