<svg width="28" height="28" viewBox="0 -9 28 28" fill="none" xmlns="http://www.w3.org/2000/svg">
  <path fill-rule="evenodd" clip-rule="evenodd" d="M0 9.66469V0H3.94161V9.66469C3.94161 10.5193 4.66253 11.2121 5.55184 11.2121C6.44115 11.2121 7.16208 10.5193 7.16208 9.66469V5.8809C7.16208 2.63297 9.9019 0 13.2816 0C16.6614 0 19.4012 2.63297 19.4012 5.8809V9.45485C19.4012 10.4254 20.2199 11.2121 21.2298 11.2121C22.2397 11.2121 23.0584 10.4254 23.0584 9.45485V0H27V9.45485C27 12.5173 24.4166 15 21.2298 15C18.043 15 15.4596 12.5173 15.4596 9.45485V5.8809C15.4596 4.72496 14.4845 3.78788 13.2816 3.78788C12.0788 3.78788 11.1037 4.72496 11.1037 5.8809V9.66469C11.1037 12.6113 8.61804 15 5.55184 15C2.48564 15 0 12.6113 0 9.66469Z" fill="black"/>
  <path transform="translate(23 -6)" d="M5 2.5C5 3.88071 3.88071 5 2.5 5C1.11929 5 0 3.88071 0 2.5C0 1.11929 1.11929 0 2.5 0C3.88071 0 5 1.11929 5 2.5Z" fill="black"/>
</svg>
